# xmcd
#
# Track frame offsets:
#	150
#	25805
#	43703
#	62926
#	80981
#	103363
#	134651
#	149837
#	169792
#	192859
#	206237
#	227556
#	237399
#	264085
#
# Disc length: 3684 seconds
#
# Revision: 0
# Processed by: cddbd v1.5.1PL0 Copyright (c) Steve Scherf et al.
# Submitted via: audiograbber 1.83.01
#
DISCID=da0e620e
DTITLE=Philippe Menard - Y'en aura pour tout le monde
DYEAR=1900
DGENRE=Blues
TTITLE0=Silly game
TTITLE1=When I was blind
TTITLE2=S'y prendre avec elle
TTITLE3=Got to go to Gotha
TTITLE4=Bury my love
TTITLE5=Stray cat blues
TTITLE6=Petite Amelie
TTITLE7=Baby baby baby ...
TTITLE8=Pour oublier Maria
TTITLE9=Spinnin' wheel blues
TTITLE10=You made me bad
TTITLE11=Le maigrelet
TTITLE12=Le dragon
TTITLE13=More dragon
EXTD=
EXTT0=
EXTT1=
EXTT2=
EXTT3=
EXTT4=
EXTT5=
EXTT6=
EXTT7=
EXTT8=
EXTT9=
EXTT10=
EXTT11=
EXTT12=
EXTT13=
PLAYORDER=
